<svg xmlns="http://www.w3.org/2000/svg" viewBox="0 0 512 512">
<defs>
<radialGradient id="bg" cx="50%" cy="38%" r="75%"><stop offset="0" stop-color="#10233a"/><stop offset=".6" stop-color="#0a0f1c"/><stop offset="1" stop-color="#06060f"/></radialGradient>
<linearGradient id="arc" x1="0" y1="0" x2="1" y2="1"><stop offset="0" stop-color="#7ff0ff"/><stop offset="1" stop-color="#00a8d6"/></linearGradient>
<linearGradient id="ekg" x1="0" x2="1"><stop offset="0" stop-color="#00d4ff" stop-opacity=".35"/><stop offset=".5" stop-color="#ffffff"/><stop offset="1" stop-color="#00d4ff" stop-opacity=".35"/></linearGradient>
<filter id="glow" x="-30%" y="-30%" width="160%" height="160%"><feGaussianBlur stdDeviation="9" result="b"/><feMerge><feMergeNode in="b"/><feMergeNode in="SourceGraphic"/></feMerge></filter>
</defs>
<rect width="512" height="512" rx="112" fill="url(#bg)"/>
<circle cx="256" cy="256" r="168" fill="none" stroke="#00d4ff" stroke-opacity=".10" stroke-width="30"/>
<line x1="326.0" y1="134.8" x2="320.0" y2="145.1" stroke="#00d4ff" stroke-opacity=".28" stroke-width="5" stroke-linecap="round"/><line x1="377.2" y1="186.0" x2="366.9" y2="192.0" stroke="#00d4ff" stroke-opacity=".28" stroke-width="5" stroke-linecap="round"/><line x1="396.0" y1="256.0" x2="384.0" y2="256.0" stroke="#00d4ff" stroke-opacity=".28" stroke-width="5" stroke-linecap="round"/><line x1="377.2" y1="326.0" x2="366.9" y2="320.0" stroke="#00d4ff" stroke-opacity=".28" stroke-width="5" stroke-linecap="round"/><line x1="326.0" y1="377.2" x2="320.0" y2="366.9" stroke="#00d4ff" stroke-opacity=".28" stroke-width="5" stroke-linecap="round"/><line x1="256.0" y1="396.0" x2="256.0" y2="384.0" stroke="#00d4ff" stroke-opacity=".28" stroke-width="5" stroke-linecap="round"/><line x1="186.0" y1="377.2" x2="192.0" y2="366.9" stroke="#00d4ff" stroke-opacity=".28" stroke-width="5" stroke-linecap="round"/><line x1="134.8" y1="326.0" x2="145.1" y2="320.0" stroke="#00d4ff" stroke-opacity=".28" stroke-width="5" stroke-linecap="round"/><line x1="116.0" y1="256.0" x2="128.0" y2="256.0" stroke="#00d4ff" stroke-opacity=".28" stroke-width="5" stroke-linecap="round"/><line x1="134.8" y1="186.0" x2="145.1" y2="192.0" stroke="#00d4ff" stroke-opacity=".28" stroke-width="5" stroke-linecap="round"/><line x1="186.0" y1="134.8" x2="192.0" y2="145.1" stroke="#00d4ff" stroke-opacity=".28" stroke-width="5" stroke-linecap="round"/>
<path d="M288.1,91.1 A168,168 0 1 1 223.9,91.1" fill="none" stroke="url(#arc)" stroke-width="30" stroke-linecap="round" filter="url(#glow)"/>
<line x1="256" y1="46" x2="256" y2="122" stroke="#f59e0b" stroke-width="12" stroke-linecap="round" filter="url(#glow)"/>
<polyline points="146,262 200,262 222,226 246,304 272,188 294,262 366,262" fill="none" stroke="url(#ekg)" stroke-width="15" stroke-linejoin="round" stroke-linecap="round" filter="url(#glow)"/>
</svg>